<?xml version="1.0" standalone="no"?>
<!DOCTYPE svg PUBLIC "-//W3C//DTD SVG 20010904//EN"
 "http://www.w3.org/TR/2001/REC-SVG-20010904/DTD/svg10.dtd">
<svg version="1.0" xmlns="http://www.w3.org/2000/svg"
 width="736.000000pt" height="736.000000pt" viewBox="0 0 736.000000 736.000000"
 preserveAspectRatio="xMidYMid meet">

<g transform="translate(0.000000,736.000000) scale(0.100000,-0.100000)"
fill="#000000" stroke="none">
<path d="M1485 6544 c-324 -46 -561 -220 -671 -492 -50 -125 -59 -177 -59
-352 0 -146 3 -177 28 -273 15 -59 44 -151 66 -205 38 -95 39 -101 44 -252 23
-669 452 -1786 1000 -2605 528 -790 1131 -1309 1761 -1517 l119 -39 66 22
c383 127 785 389 1169 763 894 872 1489 2120 1592 3341 13 156 13 508 0 655
-10 112 -12 116 -43 143 -66 58 -256 163 -451 249 -127 56 -470 169 -661 217
-606 152 -1248 231 -1892 231 -506 0 -880 -44 -1185 -141 l-96 -31 -70 59
c-122 102 -262 174 -403 208 -64 15 -258 27 -314 19z m240 -199 c124 -22 251
-90 345 -185 154 -155 219 -348 191 -564 -19 -144 -77 -264 -174 -366 -139
-146 -316 -216 -522 -207 -171 7 -294 58 -419 177 -142 134 -211 298 -210 495
1 118 20 201 69 294 141 268 425 408 720 356z m2100 -55 c1090 -46 1999 -262
2550 -606 l73 -45 7 -75 c14 -141 -1 -586 -24 -754 -47 -336 -122 -646 -230
-945 -87 -242 -128 -340 -143 -343 -10 -2 -19 12 -27 40 -37 123 -150 271
-298 389 -134 106 -363 201 -526 217 -117 12 -194 0 -283 -42 -76 -36 -126
-44 -154 -25 -22 15 44 70 159 133 52 28 96 56 98 63 7 21 -98 62 -192 74
-109 14 -220 7 -298 -20 -63 -22 -137 -61 -137 -72 0 -14 30 -30 155 -87 71
-31 130 -61 132 -67 1 -5 -30 -22 -71 -38 l-73 -27 -127 40 c-74 24 -126 46
-126 53 0 7 15 28 34 46 29 28 33 37 23 52 -30 47 65 113 223 154 95 25 102
30 94 71 l-6 34 36 -5 c32 -6 37 -3 46 20 14 37 161 195 182 195 10 0 40 -9
67 -20 32 -12 52 -16 56 -9 7 10 -233 129 -350 172 -88 33 -257 78 -264 71 -3
-3 5 -13 18 -23 47 -36 6 -79 -45 -47 -21 15 -23 21 -18 57 5 32 3 43 -12 55
-33 26 -177 93 -216 100 -34 6 -39 4 -48 -20 -13 -36 -4 -52 41 -70 39 -16 52
-42 26 -52 -8 -3 -61 8 -119 25 -217 61 -698 138 -698 112 0 -3 30 -15 68 -24
83 -22 177 -67 177 -86 0 -16 -238 -157 -280 -166 -39 -8 -163 25 -267 70 -46
20 -87 40 -92 45 -12 12 49 41 189 89 66 23 124 47 130 53 7 8 5 9 -5 6 -189
-66 -250 -80 -350 -85 l-105 -5 -98 50 c-117 61 -214 94 -259 90 -31 -3 -33
-5 -36 -46 -2 -29 -7 -42 -15 -39 -7 2 -37 12 -67 22 -81 26 -84 32 -48 85
126 182 171 322 172 535 1 163 -8 208 -70 363 -25 63 -44 115 -42 117 2 2 44
15 93 30 214 62 488 100 815 114 260 12 304 12 555 1z m-1610 -1189 c3 -5 -8
-31 -25 -57 -16 -26 -35 -63 -41 -83 -11 -32 -10 -36 10 -49 18 -12 21 -24 21
-76 0 -33 -5 -95 -10 -136 -10 -79 -27 -103 -64 -98 -18 3 -19 14 -20 173 -1
166 0 171 27 230 40 86 83 126 102 96z m437 -68 c61 -26 113 -53 115 -59 2 -7
-23 -14 -71 -18 -62 -6 -86 -3 -138 14 -68 23 -108 45 -108 60 0 5 5 21 10 36
9 24 14 26 46 21 19 -3 85 -27 146 -54z m-254 -52 c144 -40 145 -43 28 -66
-130 -24 -135 -42 -33 -118 70 -53 136 -118 187 -185 21 -29 29 -33 53 -27 17
5 38 22 51 44 34 53 61 74 85 66 26 -8 28 -35 3 -35 -24 0 -60 -35 -68 -65
-10 -42 4 -74 39 -89 26 -12 28 -15 10 -15 -36 -2 -55 10 -69 43 l-13 31 -1
-32 c0 -39 30 -63 78 -63 25 0 43 9 69 35 32 32 35 39 31 85 l-3 50 90 1 c50
1 115 4 145 8 58 7 55 10 -30 31 -108 27 -150 42 -145 51 7 10 47 6 170 -18
97 -19 114 -27 190 -97 43 -41 74 -60 112 -71 94 -28 248 -200 328 -368 13
-29 45 -76 70 -104 35 -40 42 -53 29 -53 -25 0 -218 63 -225 74 -4 4 -7 42 -8
83 -2 112 -52 202 -146 268 -80 55 -146 76 -256 82 -82 5 -101 3 -142 -15 -46
-20 -150 -95 -175 -125 -11 -12 -31 -14 -113 -10 -92 6 -102 4 -129 -16 -23
-17 -48 -22 -107 -25 -101 -5 -147 9 -201 60 -40 39 -43 46 -37 76 12 59 24
62 85 23 62 -39 70 -41 70 -21 0 26 44 68 73 69 15 1 27 5 27 9 0 16 -86 113
-138 153 -54 43 -82 55 -82 37 0 -32 -24 -180 -32 -194 -5 -11 -20 -18 -39
-18 l-29 0 1 78 c0 42 -2 110 -6 150 -6 62 -4 82 15 135 25 69 55 117 73 117
7 0 58 -13 115 -29z m-1276 -49 c184 -106 280 -133 478 -133 162 0 252 18 369
72 35 16 69 29 77 29 11 0 14 -21 16 -87 1 -49 1 -101 1 -118 -5 -120 -3 -176
6 -213 17 -61 104 -151 193 -197 65 -34 80 -38 145 -38 59 1 84 6 136 31 l64
30 79 -27 c76 -26 79 -28 77 -57 -1 -16 -3 -77 -4 -135 -3 -131 13 -171 104
-256 113 -105 248 -158 348 -135 130 30 258 132 313 250 16 34 34 62 39 62 5
0 39 -15 76 -32 59 -29 76 -33 161 -34 l95 -1 138 -72 c75 -40 183 -89 240
-110 l102 -36 12 -63 c22 -110 63 -161 172 -215 90 -44 161 -48 232 -12 30 14
71 43 92 63 l37 36 48 -45 c142 -137 274 -193 514 -218 182 -20 246 -49 289
-134 30 -58 23 -141 -19 -230 -82 -177 -378 -608 -571 -832 -110 -128 -432
-455 -449 -455 -8 0 -12 19 -12 62 0 88 -25 178 -81 293 -186 381 -742 844
-1341 1116 -350 159 -607 239 -1008 314 -449 84 -640 151 -818 285 -177 133
-256 304 -352 758 -39 183 -95 532 -86 532 2 0 42 -22 88 -48z m2873 -17 c105
-16 145 -34 145 -65 0 -11 11 -54 25 -97 14 -43 25 -81 25 -85 0 -5 -27 -8
-60 -8 -35 0 -74 -7 -90 -15 -20 -10 -89 -19 -210 -27 -211 -14 -210 -14 -314
85 l-61 58 37 32 c20 18 74 59 120 90 l83 58 100 -6 c56 -3 145 -12 200 -20z
m650 -65 c136 -46 218 -88 223 -113 4 -21 -71 -93 -133 -127 -40 -22 -46 -23
-71 -9 -55 29 -133 110 -144 148 -5 21 -19 46 -30 56 -11 10 -20 23 -20 29 0
19 30 56 45 56 8 0 66 -18 130 -40z m-305 -109 c29 -22 72 -66 96 -98 64 -85
59 -91 -34 -43 -33 16 -75 33 -93 36 -63 12 -71 21 -93 90 -8 27 16 54 49 54
13 0 46 -18 75 -39z m-240 -261 c415 -62 386 -72 -113 -40 l-167 11 -55 -26
c-33 -15 -55 -32 -55 -42 0 -8 11 -47 25 -86 34 -94 19 -108 -30 -26 -20 34
-56 88 -81 119 -24 31 -44 61 -44 67 0 13 198 72 225 67 11 -2 144 -22 295
-44z m-770 -178 c0 -14 -75 -125 -97 -144 -19 -17 -21 -17 -66 12 -26 16 -47
33 -47 38 0 16 55 61 100 81 46 21 110 28 110 13z m113 -58 c18 -26 31 -60 35
-89 l5 -48 -84 7 c-91 8 -99 11 -99 30 0 24 85 146 100 144 8 -2 27 -22 43
-44z m-318 -125 c19 -17 35 -40 35 -51 0 -11 -20 -51 -45 -89 -61 -94 -76 -92
-77 9 -1 59 26 162 42 162 5 0 25 -14 45 -31z m1234 -55 c2 -2 -29 -37 -69
-79 -47 -47 -81 -75 -95 -75 -23 0 -115 28 -127 39 -9 8 41 58 122 124 l55 44
55 -24 c30 -14 57 -27 59 -29z m839 20 c148 -38 349 -166 459 -291 75 -86 93
-113 136 -199 33 -65 73 -191 64 -201 -3 -2 -20 6 -40 17 -67 39 -148 55 -377
70 -178 12 -249 22 -340 52 -88 29 -144 64 -135 86 33 81 47 139 52 207 4 70
2 86 -19 125 -13 25 -42 58 -65 75 -63 45 -58 60 25 75 58 11 164 4 240 -16z
m-1710 -33 c1 -1 -9 -23 -22 -49 -31 -61 -102 -152 -119 -152 -17 0 -60 136
-56 170 4 22 10 26 54 31 39 5 124 5 143 0z m1005 -31 c5 -4 -9 -35 -31 -68
-21 -33 -45 -74 -52 -91 -11 -27 -17 -31 -52 -31 -41 0 -78 14 -78 29 0 11
114 150 137 168 16 12 60 8 76 -7z m-1244 -100 c44 -95 41 -105 -34 -104 -58
1 -125 24 -125 44 0 16 100 130 114 130 7 0 28 -31 45 -70z m1631 -18 c0 -12
-53 -83 -78 -106 -29 -25 -54 -14 -50 21 2 18 17 38 46 60 41 31 82 43 82 25z
m71 -47 c11 -25 19 -58 17 -73 -3 -25 -6 -27 -58 -30 -74 -3 -87 6 -70 49 16
37 67 99 82 99 5 0 18 -20 29 -45z m-221 -136 c0 -48 -37 -139 -56 -139 -17 0
-17 13 -3 82 22 104 59 139 59 57z m218 -8 c11 -7 11 -14 -3 -42 -28 -54 -86
-130 -98 -126 -13 4 -37 83 -37 124 0 34 -4 32 90 46 14 3 27 5 30 5 3 1 11
-2 18 -7z m-158 -127 c19 -55 20 -68 9 -75 -33 -21 -109 -1 -109 28 0 25 59
125 70 118 4 -3 18 -35 30 -71z m-2570 -509 c844 -95 1691 -453 2141 -904 260
-261 332 -489 209 -659 -31 -43 -126 -117 -240 -188 -81 -51 -386 -218 -501
-275 l-87 -42 -173 86 c-580 286 -959 595 -1380 1122 -157 198 -385 540 -445
669 -45 97 -23 156 71 190 53 19 242 20 405 1z"/>
<path d="M5097 4683 c-11 -17 15 -37 91 -73 l74 -35 40 44 c38 41 40 44 22 54
-25 14 -220 22 -227 10z"/>
<path d="M4715 4460 c-4 -7 -3 -16 3 -22 14 -14 57 -6 57 12 0 18 -50 26 -60
10z"/>
<path d="M2462 4474 c-9 -18 -9 -31 -2 -45 6 -10 12 -19 13 -19 1 0 2 20 2 45
0 25 0 45 -1 45 0 0 -6 -12 -12 -26z"/>
<path d="M2500 4479 c-8 -15 -8 -24 0 -34 7 -8 9 -19 5 -25 -12 -20 24 -10 52
15 l28 25 -24 20 c-30 26 -47 25 -61 -1z"/>
<path d="M4818 1229 c-10 -5 -18 -18 -18 -29 0 -10 -6 -21 -12 -24 -10 -5 -10
-7 0 -12 8 -4 12 -29 12 -75 0 -89 18 -90 22 -1 3 61 5 67 26 70 30 5 28 22
-3 22 -14 0 -25 4 -25 8 0 14 23 32 42 32 10 0 18 5 18 10 0 13 -40 12 -62 -1z"/>
<path d="M4900 1100 c0 -47 4 -80 10 -80 6 0 10 24 10 53 0 58 12 77 47 77 14
0 23 6 23 15 0 18 -31 20 -49 3 -11 -10 -14 -10 -18 0 -13 34 -23 4 -23 -68z"/>
<path d="M5030 1160 c-25 -25 -27 -91 -4 -114 31 -32 114 -33 114 -1 0 11 -5
12 -26 5 -35 -14 -41 -13 -64 10 -32 32 -24 40 41 40 l61 0 -7 27 c-4 16 -11
34 -17 40 -16 20 -75 16 -98 -7z m84 -16 c9 -23 4 -26 -45 -22 -41 3 -42 4
-25 21 22 22 62 22 70 1z"/>
<path d="M5198 1163 c-36 -42 -23 -124 22 -138 31 -10 90 3 90 20 0 11 -6 12
-30 3 -24 -8 -35 -7 -55 6 -44 29 -32 46 30 46 52 0 55 2 55 24 0 14 -7 32
-16 40 -21 21 -77 20 -96 -1z m80 -15 c21 -21 13 -28 -33 -28 -43 0 -45 1 -35
20 12 22 49 27 68 8z"/>
<path d="M5356 1159 c-20 -29 -5 -58 34 -66 40 -8 55 -27 34 -44 -12 -10 -22
-10 -47 -1 -37 14 -50 6 -23 -14 41 -29 106 -10 106 31 0 26 -10 35 -55 50
-47 16 -39 40 13 38 57 -3 52 21 -5 25 -33 2 -44 -1 -57 -19z"/>
<path d="M5490 1172 c0 -24 58 -147 69 -147 13 0 76 143 67 152 -11 11 -25
-10 -41 -57 -9 -28 -20 -50 -25 -50 -4 0 -16 23 -26 52 -17 45 -44 77 -44 50z"/>
<path d="M5676 1158 c-23 -32 -20 -91 4 -113 14 -13 29 -16 55 -12 38 6 40 5
24 -24 -8 -15 -19 -20 -42 -18 -18 2 -34 -1 -37 -6 -3 -6 14 -11 36 -13 64 -5
74 12 74 119 l0 89 -49 0 c-40 0 -53 -4 -65 -22z m92 -44 c4 -48 -15 -69 -53
-60 -17 4 -25 14 -26 29 -3 56 13 79 50 75 23 -3 26 -8 29 -44z"/>
<path d="M5846 1159 c-21 -31 -5 -56 44 -69 23 -6 40 -17 40 -25 0 -20 -43
-29 -70 -15 -28 15 -41 3 -16 -16 43 -31 106 -10 106 35 0 25 -5 31 -42 43
-59 18 -58 44 0 41 57 -3 52 21 -5 25 -33 2 -44 -1 -57 -19z"/>
<path d="M6109 1162 c-33 -28 -34 -96 0 -123 34 -28 101 -23 101 7 0 10 -6 11
-30 2 -26 -8 -34 -7 -50 7 -24 22 -26 68 -4 89 18 19 38 20 66 5 17 -9 19 -8
16 8 -5 27 -67 30 -99 5z"/>
<path d="M6264 1172 c-39 -26 -44 -93 -9 -127 48 -49 115 -19 115 53 0 52 -23
82 -63 82 -18 0 -37 -4 -43 -8z m76 -44 c13 -25 13 -31 0 -55 -19 -33 -42 -40
-64 -18 -19 19 -21 76 -4 93 20 20 51 10 68 -20z"/>
<path d="M6412 1102 c2 -49 7 -77 16 -80 9 -3 12 13 12 57 0 51 3 62 21 71 36
20 48 6 51 -60 4 -75 22 -79 26 -5 2 43 7 57 23 66 36 19 48 5 51 -63 2 -35 7
-62 13 -61 14 4 18 108 5 133 -12 22 -49 27 -80 10 -12 -6 -21 -7 -25 0 -3 5
-31 9 -61 8 l-55 -2 3 -74z"/>
<path d="M6002 1043 c5 -25 28 -28 28 -4 0 12 -6 21 -16 21 -9 0 -14 -7 -12
-17z"/>
</g>
</svg>
